<svg xmlns="http://www.w3.org/2000/svg" width="14.7" height="14.812" viewBox="0 0 14.7 14.812">
  <defs>
    <style>
      .cls-1 {
        fill: none;
        stroke: #999;
        stroke-width: 0.7px;
      }
    </style>
  </defs>
  <path id="首页" class="cls-1" d="M4.966,5.9a.7.7,0,0,0-.243.516.676.676,0,0,0,.678.673H6.759v6.389a.675.675,0,0,0,.678.672H9.688a.675.675,0,0,0,.678-.672v-2.69h2.714v2.69a.674.674,0,0,0,.678.672h2.25a.675.675,0,0,0,.678-.672V7.094h1.357a.675.675,0,0,0,.678-.673.655.655,0,0,0-.26-.516C16.134,3.96,11.723.156,11.723.156S7.311,3.96,4.966,5.9Zm5.657-4.874" transform="translate(-4.373 0.306)"/>
</svg>
