<svg xmlns="http://www.w3.org/2000/svg" width="20" height="20" viewBox="0 0 20 20">
  <defs>
    <style>
      .cls-1 {
        fill: #fa0;
      }

      .cls-2 {
        fill: #fff;
      }
    </style>
  </defs>
  <g id="zhuye" transform="translate(-35 -3778)">
    <circle id="DI" class="cls-1" cx="10" cy="10" r="10" transform="translate(35 3778)"/>
    <path id="首页" class="cls-2" d="M4.931,5.084a.6.6,0,0,0-.208.443A.579.579,0,0,0,5.3,6.1H6.468V11.58a.578.578,0,0,0,.581.576H8.979a.579.579,0,0,0,.581-.576V9.274h2.327V11.58a.578.578,0,0,0,.581.576H14.4a.578.578,0,0,0,.581-.576V6.1h1.163a.579.579,0,0,0,.581-.577.561.561,0,0,0-.223-.443C14.5,3.417,10.723.156,10.723.156S6.942,3.416,4.931,5.084ZM9.78.906" transform="translate(34.277 3780.844)"/>
  </g>
</svg>
