<svg xmlns="http://www.w3.org/2000/svg" width="20" height="20" viewBox="0 0 20 20">
  <defs>
    <style>
      .cls-1 {
        fill: #fa0;
      }

      .cls-2 {
        fill: #fff;
      }
    </style>
  </defs>
  <g id="che" transform="translate(-35 -3778)">
    <circle id="DI" class="cls-1" cx="10" cy="10" r="10" transform="translate(35 3778)"/>
    <path id="汽车_6_" data-name="汽车 (6)" class="cls-2" d="M149.173,219.736H148a.322.322,0,0,0-.153.042l-.529-1.616a1.534,1.534,0,0,0-1.588-1.363h-4.957a1.561,1.561,0,0,0-1.588,1.361l-.529,1.622a.314.314,0,0,0-.162-.048h-1.171a.328.328,0,0,0-.325.332v.288a.328.328,0,0,0,.325.33l.444.076a2.11,2.11,0,0,0-.22.966l-.165,1.909a1.416,1.416,0,0,0,.01.168.561.561,0,0,0-.01.107v2.3a.586.586,0,0,0,.582.592h.889a.586.586,0,0,0,.582-.592v-.737h7.638v.737a.586.586,0,0,0,.582.592h.886a.586.586,0,0,0,.582-.592v-2.3a.719.719,0,0,0-.01-.107,1.438,1.438,0,0,0,.01-.168l-.163-1.907a2.113,2.113,0,0,0-.22-.968l.434-.075a.328.328,0,0,0,.325-.331v-.288A.331.331,0,0,0,149.173,219.736Zm-9.594-.339.387-1.05.005-.025c.038-.212.125-.249.252-.414h6.068c.128.168.209.21.244.412l.394,1.075.143.585a.979.979,0,0,1-.959.765h-5.72a.979.979,0,0,1-.959-.765Zm.272,4.987a.9.9,0,1,1,.881-.9A.887.887,0,0,1,139.851,224.384Zm4.921-.661a.264.264,0,0,1-.262.266h-2.472a.264.264,0,0,1-.262-.266v-.75a.263.263,0,0,1,.262-.266h2.472a.263.263,0,0,1,.262.266Zm1.886.661a.9.9,0,1,1,.881-.9A.888.888,0,0,1,146.658,224.384Zm0,0" transform="translate(-98 3565.2)"/>
  </g>
</svg>
