<svg xmlns="http://www.w3.org/2000/svg" width="20" height="20" viewBox="0 0 20 20">
  <defs>
    <style>
      .cls-1, .cls-2 {
        fill: none;
      }

      .cls-2 {
        stroke: #999;
        stroke-width: 0.6px;
      }
    </style>
  </defs>
  <g id="che_" transform="translate(-35 -3779)">
    <rect id="矩形_107" data-name="矩形 107" class="cls-1" width="20" height="20" transform="translate(35 3779)"/>
    <path id="汽车_6_" data-name="汽车 (6)" class="cls-2" d="M152.582,220.558h-1.5a.411.411,0,0,0-.2.054l-.677-2.068a1.964,1.964,0,0,0-2.033-1.745h-6.345a2,2,0,0,0-2.033,1.742l-.677,2.077a.405.405,0,0,0-.207-.061h-1.5a.419.419,0,0,0-.416.425v.369a.42.42,0,0,0,.416.423l.568.1a2.7,2.7,0,0,0-.282,1.237l-.211,2.443a1.812,1.812,0,0,0,.013.215.723.723,0,0,0-.013.137v2.938a.751.751,0,0,0,.745.757h1.138a.751.751,0,0,0,.745-.757V227.9H149.9v.944a.751.751,0,0,0,.745.757h1.134a.751.751,0,0,0,.745-.757V225.9a.924.924,0,0,0-.013-.137,1.84,1.84,0,0,0,.013-.215l-.209-2.441a2.705,2.705,0,0,0-.282-1.239l.555-.1a.42.42,0,0,0,.416-.423v-.369A.423.423,0,0,0,152.582,220.558Zm-12.281-.434.5-1.343.006-.033c.049-.271.16-.319.322-.529h7.767c.164.215.267.269.312.527l.5,1.376.184.749a1.253,1.253,0,0,1-1.228.979h-7.321a1.253,1.253,0,0,1-1.228-.979Zm.348,6.384a1.146,1.146,0,1,1,1.127-1.146A1.135,1.135,0,0,1,140.649,226.508Zm6.3-.846a.337.337,0,0,1-.335.341h-3.164a.337.337,0,0,1-.335-.341V224.7a.337.337,0,0,1,.335-.341h3.164a.337.337,0,0,1,.335.341Zm2.415.846a1.146,1.146,0,1,1,1.127-1.146A1.137,1.137,0,0,1,149.362,226.508Zm0,0" transform="translate(-100.5 3565.7)"/>
  </g>
</svg>
